<?xml version="1.0" encoding="utf-8"?>
<svg id="a" viewBox="0 0 800 600.7" xmlns="http://www.w3.org/2000/svg">
  <defs/>
  <path d="M 302.91 575.501 C 304.01 574.781 305.12 574.051 306.82 572.931 C 305.52 572.401 304.8 572.051 304.06 571.801 C 288.97 566.761 274.45 560.571 261.8 550.681 C 246.37 538.621 236.22 523.201 233.02 503.681 C 230.19 486.431 234.19 470.431 242.81 455.461 C 250.88 441.451 262.77 431.181 275.84 422.111 C 280.73 418.721 285.58 415.261 290.6 412.091 C 300.55 405.801 304.03 396.701 302.84 385.351 C 301.78 375.291 300.46 365.241 299.94 355.151 C 299.12 339.501 302.26 324.751 312.17 312.091 C 318.79 303.641 327.3 298.841 338.36 299.441 C 338.64 299.461 338.94 299.341 339.45 299.241 C 338.92 297.341 338.4 295.491 337.6 292.641 C 341.46 294.141 344.63 295.371 347.79 296.601 L 347.72 297.611 L 342.51 300.591 C 343.82 301.431 344.77 302.031 345.7 302.641 C 353.13 307.501 354.26 315.691 348.12 322.101 C 343.09 327.341 340.02 333.041 341.79 340.561 C 343.33 347.131 347.74 351.651 353.32 352.161 C 358.46 352.631 364.06 348.791 366.41 342.711 C 369.23 335.431 371.78 328.041 374.37 320.671 C 395.45 260.581 416.47 200.481 437.62 140.421 C 440.43 132.431 441.29 124.871 436.27 117.441 C 435.85 116.821 435.96 115.571 436.27 114.781 C 437.09 112.681 438.16 110.671 439.25 108.361 C 436.93 107.591 434.81 106.871 432.68 106.201 C 430.63 105.551 430.08 104.161 430.82 102.281 C 431.54 100.461 432.59 99.231 434.91 100.231 C 437.08 101.161 439.37 101.801 441.74 102.611 C 443.01 99.801 444.3 96.961 445.71 93.851 C 443.67 93.201 441.83 92.601 439.97 92.021 C 437.96 91.391 437.29 89.991 438.02 88.101 C 438.7 86.361 439.64 84.901 442.04 85.931 C 443.92 86.741 445.95 87.241 448.25 87.991 C 449.36 85.501 450.47 83.021 451.75 80.161 C 449.53 79.511 447.49 78.921 445.45 78.301 C 443.64 77.761 442.7 76.611 443.44 74.731 C 444.08 73.101 444.63 71.211 447.22 72.251 C 449.31 73.091 451.51 73.631 453.86 74.361 C 455.1 71.511 456.34 68.651 457.68 65.551 C 455.6 64.921 453.73 64.391 451.87 63.791 C 450.13 63.231 448.74 62.431 449.4 60.171 C 450.03 58.021 451.34 56.921 453.59 57.531 C 455.77 58.121 457.89 58.911 460.13 59.641 C 462.16 55.011 464.17 50.411 466.17 45.871 C 477.28 48.211 488.16 50.511 499.37 52.871 C 498.31 57.361 497.25 61.831 496.12 66.621 C 498.67 66.971 500.97 67.291 503.27 67.591 C 505.22 67.851 506.37 68.631 505.98 70.901 C 505.61 73.081 504.81 74.481 502.3 74.031 C 501.23 73.841 500.15 73.671 499.08 73.521 C 495.853 73.087 493.9 74.517 493.22 77.811 C 492.97 79.031 492.68 80.241 492.36 81.651 C 494.76 81.981 496.79 82.261 498.84 82.531 C 500.93 82.801 502.07 83.711 501.71 86.071 C 501.38 88.251 500.3 89.321 498.1 89.001 C 495.66 88.651 493.24 88.181 490.42 87.701 C 489.75 90.621 489.1 93.441 488.4 96.501 C 490.87 96.831 493.1 97.121 495.32 97.441 C 497.3 97.731 498.39 98.741 497.98 100.881 C 497.6 102.851 496.71 104.261 494.39 103.891 C 491.97 103.501 489.57 103.041 486.97 102.571 C 486.33 105.711 485.75 108.591 485.1 111.821 C 487.47 112.171 489.76 112.641 492.07 112.831 C 494.38 113.021 494.88 114.251 494.56 116.261 C 494.25 118.171 493.49 119.431 491.25 119.081 C 488.9 118.711 486.55 118.411 484.19 118.081 C 484.04 118.251 483.8 118.391 483.79 118.541 C 483.43 124.321 480.18 127.771 475.39 130.801 C 470.45 133.921 467.52 138.961 465.78 144.701 C 451.08 193.491 436.29 242.251 421.51 291.021 C 414.42 314.411 407.29 337.781 400.19 361.171 C 397.83 368.931 399.68 375.311 405.35 379.121 C 411.35 383.151 419.61 382.511 425.53 377.631 C 430.86 373.241 433.99 367.501 436.01 361.041 C 436.39 359.811 436.74 358.571 437.15 357.361 C 438.87 352.301 442.18 351.021 446.86 353.671 C 452.62 356.931 454.25 362.731 455.64 368.551 C 459.01 382.651 454.32 394.131 444.4 404.191 C 438.42 410.251 432.86 416.761 427.51 423.391 C 420.64 431.901 420.17 441.231 424.33 451.311 C 428.85 462.271 433.28 473.321 436.71 484.651 C 440.8 498.171 442.59 512.281 437.71 525.921 C 427.17 555.361 406.65 574.161 375.81 580.781 C 358.25 584.551 340.9 581.791 323.73 577.591 C 319.73 576.611 315.79 575.431 311.41 574.221 C 312.15 576.121 312.76 577.691 313.37 579.261 L 312.9 580.061 C 309.49 578.941 306.08 577.811 302.67 576.691 L 302.88 575.531 L 302.91 575.501 Z M 414.02 395.441 C 414.02 396.001 414.12 396.341 414.01 396.581 C 407.71 410.281 407.97 424.491 410.97 438.821 C 412.85 447.811 415.41 456.651 417.21 465.651 C 418.42 471.701 418.53 477.901 415.81 483.751 C 412.4 491.061 405.26 492.511 399.3 487.081 C 397.54 485.481 395.88 483.751 394.32 481.961 C 388.37 475.151 381.92 469.141 372.4 467.921 C 374.8 460.701 377.05 453.661 379.49 446.681 C 380.46 443.911 379.51 442.571 376.9 441.891 C 375.2 441.451 373.51 440.921 371.63 440.381 C 374.12 433.011 376.6 425.731 379.05 418.441 C 380.94 412.821 380.97 412.691 386.57 414.711 C 389.25 415.671 390.6 415.091 391.44 412.391 C 393.24 406.641 395.25 400.961 397.11 395.221 C 398.33 391.461 397.78 390.331 394.02 389.171 C 392.29 388.641 390.44 388.511 388.65 388.201 L 388.39 389.051 C 389.88 389.611 391.49 389.961 392.8 390.791 C 393.69 391.351 394.9 392.811 394.69 393.491 C 392.95 399.251 390.97 404.931 388.92 410.601 C 388.7 411.211 387.58 412.001 387 411.911 C 384.43 411.491 381.9 410.781 379.3 410.151 C 380.66 405.571 381.8 401.381 383.14 397.261 C 384.52 393.041 386.05 388.861 387.62 384.711 C 388.04 383.601 388.83 382.631 389.22 381.971 C 389.22 380.441 388.95 379.151 389.29 378.051 C 389.7 376.681 391.19 375.461 391.19 374.181 C 391.19 371.001 391.42 368.151 394.71 366.581 C 392.65 364.491 394.19 359.801 397.17 358.581 C 395.03 356.181 396.58 351.221 400 349.501 C 397.84 347.051 399.55 341.951 402.98 340.591 C 400.92 338.061 402.35 332.671 405.49 331.131 C 403.76 328.391 405.33 323.431 408.3 322.261 C 406.47 319.881 408.36 313.621 411.41 311.951 C 409.86 309.371 411.67 303.041 414.45 301.331 C 413.03 298.921 415.6 290.841 418.23 289.411 C 416.43 287.231 419.84 276.531 422.85 274.901 C 421.29 272.571 424.21 262.761 426.96 261.081 C 425.65 258.911 428.8 248.271 431.26 246.571 C 430.33 243.461 434.08 231.761 436.5 230.221 C 435.21 227.271 439.24 214.851 441.86 213.731 C 440.51 211.301 444.07 198.661 446.17 197.291 C 446.17 195.961 445.93 194.851 446.21 193.891 C 447.55 189.241 449.18 184.661 450.41 179.981 C 451.59 175.471 453.74 171.321 454.63 166.671 C 455.61 161.551 457.38 156.571 459.01 151.601 C 459.46 150.231 460.61 149.091 461.4 147.901 C 461.4 146.731 461.08 145.271 461.45 144.021 C 464.94 132.211 468.54 120.441 472.13 108.611 C 472.43 108.771 472.69 108.891 472.94 109.051 C 475.62 110.711 478.13 110.271 479.29 107.941 C 480.22 106.071 479.31 103.691 477.27 102.691 C 475.16 101.661 472.78 102.911 471.76 105.641 C 471.31 106.841 470.95 108.081 470.59 109.311 C 466.99 121.611 463.39 133.921 459.75 146.361 C 459.03 146.131 458.57 146.001 458.13 145.841 C 457.7 145.681 457.29 145.491 456.39 145.111 C 462.49 127.791 468.55 110.611 474.6 93.431 C 478.86 95.051 480.91 94.611 481.81 92.261 C 482.83 89.611 481.77 88.091 477.49 86.271 C 478.18 84.071 478.87 81.851 479.54 79.711 C 480.02 79.711 480.22 79.671 480.39 79.711 C 483.47 80.511 485.54 79.621 486.07 77.271 C 486.58 75.021 485 72.631 482.86 72.411 C 480.85 72.201 479.33 74.141 478.95 77.141 C 478.75 78.681 478.39 80.231 477.9 81.701 C 476.59 85.631 475.16 89.521 473.79 93.421 C 471.94 98.671 470.09 103.921 468.02 109.811 C 467.5 107.711 467.53 106.201 466.8 105.311 C 466.03 104.371 464.47 103.461 463.38 103.591 C 462.17 103.731 460.61 104.831 460.06 105.931 C 458.32 109.401 456.99 113.081 455.5 116.671 L 454.8 116.411 C 459.08 101.871 463.35 87.341 467.71 72.521 C 466.58 71.471 465.47 68.581 462.57 70.101 C 461.52 70.651 460.22 72.801 460.55 73.531 C 461.42 75.451 463.13 76.991 464.85 79.121 C 464.13 81.441 463.14 84.611 462.39 87.051 C 460.28 86.611 458.41 85.691 456.86 86.081 C 455.89 86.331 454.51 89.241 454.9 89.751 C 456.14 91.381 458.12 92.451 460.31 94.101 C 456.01 109.471 451.43 125.831 446.82 142.271 L 443.5 141.161 C 443.67 140.371 443.74 139.691 443.95 139.051 C 446.71 130.701 449.54 122.371 452.25 114.001 C 453.46 110.261 454.48 106.461 455.48 102.661 C 456.18 100.001 455.09 98.501 452.36 98.101 C 450.18 97.781 449.27 99.171 448.9 100.971 C 448.45 103.151 449.74 104.411 452.41 104.611 C 452.88 104.651 453.34 104.721 454.14 104.821 C 453.79 106.281 453.5 107.541 453.4 107.971 C 450.99 108.371 449 108.221 447.69 109.101 C 446.99 109.571 447.45 111.791 447.39 113.211 L 449.4 113.211 C 448.82 112.331 448.44 111.761 448.07 111.181 L 452.48 110.041 C 449.07 120.331 446.04 129.621 442.87 138.861 C 442.53 139.861 441.43 140.601 440.61 141.561 C 440.68 142.151 441.11 143.241 440.84 144.091 C 438.97 149.921 437 155.711 434.93 161.471 C 434.54 162.541 433.5 163.381 432.74 164.351 C 432.85 165.001 433.36 166.061 433.1 166.871 C 430.84 173.821 428.5 180.751 426.04 187.631 C 425.66 188.701 424.52 189.491 423.64 190.511 C 425.13 192.791 420.91 204.851 417.8 206.321 C 419.47 208.931 415 222.001 412.06 223.081 C 413.86 225.651 409.52 237.951 406.38 239.141 C 408.12 241.551 404.61 252.071 401.56 253.601 C 403.28 256.181 399.72 265.961 396.66 267.071 C 398.6 269.401 394.83 280.631 391.69 281.901 C 393.64 284.341 390.69 292.331 387.47 293.351 C 389.5 295.341 387.58 301.841 384.3 304.101 C 386.03 306.521 383.64 312.861 380.67 313.731 C 382.38 316.661 380.4 322.161 377.32 323.081 C 379.43 325.181 377.61 330.931 374.47 332.061 C 376.46 334.671 374.72 339.841 371.44 341.091 C 373.49 343.511 371.65 348.711 368.26 350.111 C 370.51 352.741 369.57 355.741 365.76 358.121 C 367.55 361.311 366.29 364.711 362.86 365.901 C 365.15 368.621 363.57 372.831 360.83 373.451 C 360.89 375.061 361.28 376.541 360.92 377.801 C 359.87 381.481 358.56 385.101 357.28 388.711 C 355.71 393.161 354.07 397.581 352.49 401.891 C 351.99 401.921 351.78 401.991 351.6 401.941 C 349.9 401.421 348.21 400.891 346.51 400.351 C 342.6 399.121 342.31 398.611 343.57 394.571 C 344.77 390.701 346.05 386.851 347.33 383.001 C 348.556 379.314 351.05 377.791 354.81 378.431 C 354.97 378.461 355.15 378.291 355.32 378.221 C 357.21 372.711 359.1 367.221 361.18 361.141 C 359.17 362.191 357.89 362.951 356.54 363.541 C 350.31 366.221 343.99 367.091 338.2 362.771 C 326.92 354.351 322.46 332.281 332.72 320.141 C 334.65 317.861 337.14 316.071 340.09 313.411 C 338.09 312.941 336.41 312.031 334.96 312.311 C 332.3 312.821 329.56 313.671 327.23 315.021 C 322.04 318.041 319.01 322.971 316.86 328.421 C 313.38 337.261 312.39 346.531 313.06 355.891 C 313.91 367.851 315.29 379.771 316.46 391.701 C 317.2 399.271 316.81 406.771 314.88 414.141 C 312.25 424.201 305.1 430.351 296.53 435.331 C 288.23 440.151 279.76 444.751 271.84 450.131 C 255.65 461.131 247.01 476.671 245.75 496.261 C 244.95 508.701 248.81 519.881 254.96 530.421 C 262.25 542.901 270.92 553.921 285.49 558.511 C 285.77 558.601 286.05 558.711 286.32 558.821 C 301.05 564.641 316.33 568.131 332.08 569.541 C 346.79 570.851 361.45 570.841 375.72 566.441 C 409.66 555.981 440.34 523.601 427.51 476.901 C 424.88 467.331 420.25 458.331 416.84 448.961 C 415.13 444.271 413.41 439.401 412.91 434.481 C 412.08 426.331 415.43 419.121 420.26 412.741 C 424.09 407.681 428.35 402.951 432.43 398.091 C 437.6 391.941 443.04 385.981 445.72 378.191 C 447.9 371.871 447.78 365.691 444.51 359.111 C 443.38 378.741 431.59 387.781 420.09 391.351 C 408.84 394.841 400.48 391.201 395.29 380.711 C 394.97 380.061 394.55 379.451 394.18 378.821 C 393.77 383.441 395.96 387.161 398.58 390.341 C 402.46 395.071 408.14 395.871 413.95 395.451 L 414.02 395.441 Z M 338.14 309.961 C 338.71 303.221 337.79 302.421 331.46 303.971 C 321.78 306.341 315.53 312.831 310.97 321.231 C 304.11 333.871 303.38 347.531 304.61 361.451 C 305.35 369.841 306.49 378.201 307 386.601 C 307.56 395.791 306.04 404.551 298.5 410.921 C 294.57 414.241 290.39 417.291 286.13 420.161 C 274.83 427.751 263.76 435.561 254.7 445.911 C 234.44 469.061 230.81 499.401 245.39 525.401 C 250.14 533.871 256.6 540.841 264.45 546.541 C 264.21 545.911 263.77 545.441 263.41 544.931 C 259.26 539.021 254.66 533.371 251.09 527.131 C 244.48 515.591 241.42 503.051 243.73 489.721 C 247.01 470.841 256.89 456.151 273.08 445.901 C 281.53 440.551 290.3 435.711 298.85 430.511 C 305.61 426.401 310.67 420.791 312.39 412.851 C 313.2 409.101 313.98 405.171 313.74 401.381 C 312.95 389.221 311.71 377.101 310.58 364.961 C 309.45 352.811 309.83 340.821 313.9 329.151 C 318.34 316.401 326.18 310.151 338.14 309.951 L 338.14 309.961 Z M 395.61 376.281 C 398.28 387.311 407.2 391.421 415.97 389.811 C 431.15 387.021 441.64 375.491 443.2 360.121 C 443.32 358.941 443.22 357.741 443.22 356.551 C 442.89 356.471 442.57 356.391 442.24 356.321 C 441.76 357.171 441.17 357.981 440.83 358.891 C 440.14 360.741 439.66 362.661 438.99 364.511 C 435.59 373.831 430.16 381.321 420.42 384.851 C 412.47 387.731 403.86 386.051 399 380.641 C 397.85 379.361 396.88 377.911 395.62 376.271 L 395.61 376.281 Z M 329.84 342.981 C 330.31 344.781 330.67 346.611 331.26 348.371 C 334.97 359.361 342.52 364.441 352.37 362.641 C 359.02 361.431 363.14 357.941 364.06 352.731 C 350.06 361.371 337.24 356.571 329.83 342.981 L 329.84 342.981 Z M 490.9 61.291 C 490.06 60.711 488.8 59.281 487.27 58.901 C 485.42 58.451 482.97 61.581 483.16 63.771 C 483.38 66.321 485.46 66.321 487.24 66.401 C 489.48 66.501 490.99 64.741 490.89 61.291 L 490.9 61.291 Z M 469.37 68.251 L 469.86 68.361 C 470.15 67.381 470.41 66.381 470.75 65.411 C 471.1 64.391 471.42 63.331 471.95 62.391 C 473.18 60.201 472.16 58.621 470.39 57.691 C 468.43 56.661 466.48 57.141 465.32 59.241 C 463.78 62.031 465.76 64.331 469.92 64.581 L 469.38 68.241 L 469.37 68.251 Z M 478.16 60.861 C 477.06 59.591 476.03 58.401 474.54 56.671 C 474.11 58.921 473.89 60.131 473.6 61.611 C 476.7 62.041 479.54 62.431 483.39 62.961 C 482.28 61.291 481.8 60.271 481.04 59.541 C 480.7 59.221 479.8 59.491 478.75 59.491 C 478.68 59.651 478.39 60.341 478.16 60.861 Z M 474.26 117.181 L 475.82 116.591 C 475.24 115.171 474.66 113.751 474.07 112.331 C 473.61 112.601 472.73 112.991 472.77 113.111 C 473.19 114.491 473.74 115.831 474.26 117.181 Z" style="fill: rgb(109, 40, 217);"/>
  <path d="M372.31,507.95c-.02,6.67-6.76,12.29-13.25,10.44-11.39-3.25-22.65-6.96-33.95-10.51-5.94-1.87-11.89-3.69-17.75-5.76-5.86-2.07-8.76-7.13-7.82-13.06,.91-5.75,6.2-9.82,11.88-8.35,7.92,2.04,15.68,4.69,23.49,7.12,9.51,2.96,19.02,5.9,28.49,8.96,5.97,1.93,8.93,5.76,8.92,11.17Zm-69.23-17.46c0,3.99,1.94,6.88,5.95,8.29,4.93,1.74,9.94,3.25,14.92,4.84,11.94,3.79,23.87,7.63,35.86,11.29,3.64,1.11,6.93-.8,8.42-4.3,1.4-3.3,.19-7.13-3.03-8.99-1.43-.83-3.05-1.39-4.64-1.9-11.84-3.78-23.69-7.54-35.55-11.27-4.69-1.47-9.36-3.13-14.15-4.19-4.37-.97-7.79,2.04-7.78,6.23Z" style="fill: rgb(109, 40, 217);"/>
  <path d="M334.64,483.44c2.42-6.77,4.69-13.14,7.02-19.66,1.73,.53,3.32,1.02,5.1,1.57-2.19,6.55-4.34,12.95-6.49,19.36l1,.33c2.13-6.36,4.26-12.72,6.46-19.27,1.75,.47,3.52,.95,5.5,1.49-2.27,6.61-4.51,13.13-6.84,19.89-3.97-1.25-7.77-2.45-11.75-3.7Z" style="fill: rgb(109, 40, 217);"/>
  <path d="M352.92,489.17c2.33-6.78,4.54-13.2,6.73-19.56,.29-.08,.5-.22,.66-.18q10.12,2.68,6.94,12.67c-.75,2.35-1.5,4.7-2.32,7.02-.64,1.8-1.88,2.71-3.89,2.32-.58-.11-1.2-.05-1.76-.22-2.14-.66-4.27-1.37-6.37-2.06Z" style="fill: rgb(109, 40, 217);"/>
  <path d="M383.58,532c.05-4.74,3.76-8.4,8.53-8.41,4.68-.01,8.54,3.8,8.57,8.45,.03,4.66-4.05,8.65-8.81,8.62-4.7-.03-8.33-3.82-8.29-8.65Z" style="fill: rgb(109, 40, 217);"/>
  <path d="M396.24,497.53c-.06,4.84-3.83,8.29-8.98,8.21-4.6-.07-8.38-3.92-8.25-8.4,.13-4.57,4.14-8.37,8.79-8.33,4.73,.04,8.5,3.84,8.44,8.52Z" style="fill: rgb(109, 40, 217);"/>
  <path d="M334.11,454.97c-2.24-.78-4.26-1.49-6.28-2.2-1.83-.64-2.38-1.79-1.75-3.69,1.72-5.14,3.34-10.3,4.98-15.46,.77-2.42,2.2-3.36,4.72-2.45,1.93,.7,3.92,1.26,5.96,1.9-2.54,7.29-5.02,14.42-7.63,21.9Z" style="fill: rgb(109, 40, 217);"/>
  <path d="M423.67,510.86c.03,4.5-3.6,8.3-7.95,8.33-4.42,.03-8.13-3.68-8.17-8.16-.04-4.44,3.66-8.24,8.05-8.29,4.53-.05,8.04,3.49,8.07,8.11Z" style="fill: rgb(109, 40, 217);"/>
  <path d="M365.38,534.76c4.27,.06,7.89,3.79,7.85,8.09-.04,4.53-3.94,8.27-8.49,8.14-4.4-.12-7.91-3.76-7.81-8.08,.11-4.67,3.78-8.22,8.45-8.15Z" style="fill: rgb(109, 40, 217);"/>
  <path d="M369.22,441.71s.13-.08,.21-.06c7.97,1.68,8.4,2.44,5.85,10.1-1.09,3.27-2.04,6.6-3.26,9.82-1.21,3.19-2.42,3.7-5.75,2.76-1.33-.37-2.61-.88-4.03-1.36,2.32-7.07,4.64-14.14,6.97-21.26Z" style="fill: rgb(109, 40, 217);"/>
  <path d="M324.22,479.97c-.46,.03-.77,.12-1.05,.06-6.28-1.26-6.88-2.31-4.84-8.34,1.07-3.18,2.09-6.38,3.15-9.56,1.22-3.66,2-4.04,5.65-2.8,1.3,.44,2.58,.92,3.97,1.42-2.26,6.32-4.54,12.67-6.89,19.22Z" style="fill: rgb(109, 40, 217);"/>
  <path d="M372.68,398.41c3.62,3.78-1.25,6.18-1.06,9.5-1.84-.59-3.32-1.07-5.09-1.64,1.79-5.35,3.52-10.54,5.27-15.73,.5-1.48,1-2.97,1.67-4.38,.36-.75,1.1-1.32,1.7-2.02-1.86-.93-1.02-2.97,.13-3.94,.87-.74,2.87-.32,4.32-.08,.39,.06,.96,1.44,.79,2.03-.44,1.54-.59,3.78-2.5,2.9,.06,1.15,.43,2.49,.12,3.66-.84,3.22-1.96,6.37-3.02,9.69h-2.34Z" style="fill: rgb(109, 40, 217);"/>
  <path d="M342.73,433.42c2.1,.55,3.8,1,6.04,1.59-2.4,7.37-4.76,14.58-7.17,21.97-2.15-.65-4.08-1.24-6.11-1.85,2.44-7.32,4.79-14.38,7.23-21.71Z" style="fill: rgb(109, 40, 217);"/>
  <path d="M356.31,437.58c2.08,.55,3.85,1.02,5.89,1.56-2.43,7.48-4.77,14.64-7.16,21.98-2-.77-3.63-1.4-5.48-2.12,2.24-7.11,4.44-14.09,6.74-21.42Z" style="fill: rgb(109, 40, 217);"/>
  <path d="M348.4,458.93c-1.92-.64-3.58-1.19-5.56-1.85,1.7-5.23,3.42-10.51,5.15-15.8,.12-.37,.34-.72,.46-1.09q1.53-4.72,6.93-3.17c-2.34,7.34-4.67,14.68-6.98,21.91Z" style="fill: rgb(109, 40, 217);"/>
  <path d="M370.88,383.11c.43,.84,1.4,1.84,1.2,2.49-2.1,6.73-4.38,13.4-6.7,20.37-1.92-.63-3.67-1.21-5.37-1.77,2.53-7.2,5.01-14.26,7.56-21.5,1.15,.15,2.28,.3,3.4,.44l-.09-.03Z" style="fill: rgb(109, 40, 217);"/>
  <path d="M382.48,386.56c.9,.52,1.8,1.04,2.69,1.56-2.36,7.17-4.71,14.35-7.13,21.73-1.85-.61-3.5-1.15-5.24-1.73,2.42-6.85,4.91-13.53,7.08-20.3,.62-1.92,1.69-1.06,2.7-1.16l-.1-.1Z" style="fill: rgb(109, 40, 217);"/>
  <path d="M363.04,439.63c1.74,.5,3.32,.95,5.36,1.54-2.46,7.31-4.84,14.37-7.26,21.59-1.81-.56-3.26-1.01-5.05-1.56,2.3-7.13,4.61-14.3,6.95-21.56Z" style="fill: rgb(109, 40, 217);"/>
  <path d="M364.66,381.21l1.63,1.12c-2.45,7.13-4.88,14.21-7.44,21.64-1.68-.49-3.32-.98-5.22-1.54,2.65-7.35,5.22-14.46,7.81-21.64l3.31,.52-.1-.09Z" style="fill: rgb(109, 40, 217);"/>
  <path d="M354.17,467.51c1.67,.57,3.04,1.05,4.61,1.58-2.27,6.57-4.52,13.04-6.83,19.73-1.59-.45-2.96-.84-4.42-1.25,2.23-6.73,4.39-13.25,6.64-20.07Z" style="fill: rgb(109, 40, 217);"/>
  <path d="M434.65,165.94c1.38,.42,2.46,.74,3.66,1.1-2.63,8.09-5.19,15.98-7.8,24.03-1.26-.33-2.27-.59-3.84-1.01,2.67-8.09,5.3-16.03,7.98-24.13Z" style="fill: rgb(109, 40, 217);"/>
  <path d="M444.02,168.77c1.36,.47,2.45,.84,3.58,1.23-2.5,8.07-4.95,15.97-7.45,24.02l-3.79-1.01c2.57-8.12,5.09-16.1,7.66-24.24Z" style="fill: rgb(109, 40, 217);"/>
  <path d="M435.36,192.44c-1.35-.36-2.47-.66-3.82-1.03,2.58-7.89,5.12-15.68,7.77-23.79,1.26,.26,2.46,.5,3.75,.76-2.59,8.09-5.13,16.01-7.71,24.05Z" style="fill: rgb(109, 40, 217);"/>
  <path d="M448.55,170.44c1.28,.34,2.28,.61,3.52,.94-2.43,7.99-4.82,15.85-7.29,23.96l-3.7-.92c2.52-8.09,4.96-15.94,7.46-23.98Z" style="fill: rgb(109, 40, 217);"/>
  <path d="M329.42,482c2.47-6.75,4.8-13.11,7.15-19.51,1.38,.21,2.62,.4,4.12,.63-2.38,6.65-4.71,13.16-7.14,19.97-1.23-.32-2.59-.68-4.13-1.08Z" style="fill: rgb(109, 40, 217);"/>
  <path d="M443.96,166.66c-1.44-.5-2.51-.87-3.8-1.32,2.28-7.04,4.5-13.91,6.73-20.81,1.26,.44,2.27,.78,3.44,1.19-2.13,6.99-4.2,13.81-6.37,20.94Z" style="fill: rgb(109, 40, 217);"/>
  <path d="M435.4,163.91c2.36-6.91,4.68-13.7,7.11-20.82,1.23,.39,2.19,.7,3.24,1.04-2.07,6.52-4.04,12.81-6.05,19.09-.93,2.91-2.6,1.4-4.3,.69Z" style="fill: rgb(109, 40, 217);"/>
  <path d="M451.27,146c1.28,.39,2.28,.69,3.43,1.05-1.86,6.18-3.8,12.07-5.36,18.06-.77,2.96-1.98,3.28-4.27,1.63,2.03-6.78,4.06-13.55,6.2-20.73Z" style="fill: rgb(109, 40, 217);"/>
  <path d="M455.57,145.07c-1.26-.43-2.16-.74-2.98-1.02,1.08-9.56,6.7-16.89,11.6-24.6-2.85,8.48-5.7,16.97-8.62,25.62Z" style="fill: rgb(109, 40, 217);"/>
  <path d="M452.75,169.13c-3.28-.06-3.24-1.49-2.44-3.89,1.92-5.78,3.53-11.67,5.36-17.85l3.14,.92c-2.04,7.01-4.04,13.89-6.06,20.83Z" style="fill: rgb(109, 40, 217);"/>
  <path d="M335.53,461.83c-2.36,6.59-4.6,12.86-6.97,19.48-1.02-.1-2.1-.21-3.49-.36,2.43-6.84,4.71-13.29,7.06-19.93,1.02,.24,2.03,.48,3.4,.8Z" style="fill: rgb(109, 40, 217);"/>
  <path d="M420.41,207.78l3.79,1.06c-1.5,4.76-2.78,9.39-4.53,13.82-.3,.76-2.66,.69-4.75,1.16,2.03-5.94,3.72-10.86,5.49-16.04Z" style="fill: rgb(109, 40, 217);"/>
  <path d="M424.48,225.65c-1.37-.46-2.55-.86-4.05-1.36,1.7-5.09,3.33-9.97,5-14.98,1.46,.6,2.53,1.04,3.82,1.57-1.59,4.92-3.15,9.76-4.77,14.77Z" style="fill: rgb(109, 40, 217);"/>
  <path d="M423.84,227.54c-1.6,4.67-3.15,9.22-4.78,13.99-1.35-.4-2.61-.77-4.14-1.22,1.65-4.81,3.2-9.34,4.81-14.02l4.11,1.25Z" style="fill: rgb(109, 40, 217);"/>
  <path d="M434.6,228.68c-1.49-.45-2.59-.79-3.97-1.22,1.57-4.97,3.1-9.81,4.7-14.88l3.78,1.08c-1.51,5.04-2.97,9.9-4.5,15.01Z" style="fill: rgb(109, 40, 217);"/>
  <path d="M425.31,226.74c1.89-5.84,3.44-10.6,5.06-15.62,1.28,.32,2.47,.62,3.94,.98-1.46,4.62-2.72,9.15-4.43,13.5-.29,.73-2.56,.68-4.57,1.14Z" style="fill: rgb(109, 40, 217);"/>
  <path d="M420.2,241.92c1.67-4.91,3.18-9.35,4.77-14.02,1.36,.36,2.54,.68,4.01,1.07-1.51,4.71-2.96,9.25-4.49,14.04l-4.28-1.09Z" style="fill: rgb(109, 40, 217);"/>
  <path d="M418.6,225.84c-1.66,4.85-3.23,9.45-4.86,14.22l-4.11-1.1c1.67-4.76,3.25-9.29,4.94-14.11,1.24,.3,2.43,.59,4.03,.99Z" style="fill: rgb(109, 40, 217);"/>
  <path d="M429.92,229.39l4.03,1.14c-1.56,4.85-3.04,9.48-4.6,14.32-1.36-.43-2.44-.77-3.81-1.21,1.45-4.72,2.85-9.26,4.38-14.25Z" style="fill: rgb(109, 40, 217);"/>
  <path d="M429.65,192.98c-1.59,4.94-3.06,9.48-4.57,14.19l-4.05-1.15c1.62-4.82,3.17-9.42,4.81-14.3l3.82,1.26Z" style="fill: rgb(109, 40, 217);"/>
  <path d="M430.8,193.23c1.28,.45,2.28,.8,3.78,1.33-1.51,4.77-3,9.46-4.52,14.25-1.38-.51-2.47-.91-3.82-1.41,1.54-4.77,3.03-9.41,4.56-14.16Z" style="fill: rgb(109, 40, 217);"/>
  <path d="M408.72,254.87c-1.5-.48-2.6-.83-4.04-1.28,1.42-4.29,2.79-8.43,4.29-12.97,1.32,.41,2.57,.79,4.26,1.31-1.48,4.24-2.94,8.42-4.51,12.94Z" style="fill: rgb(109, 40, 217);"/>
  <path d="M452.59,127.07c3.08,.73,3.6,2.43,2.34,5.35-1.28,2.96-2.1,6.12-3.04,9.22-.42,1.37-1.09,1.98-2.56,1.51-1.55-.5-1.46-1.39-1-2.73,1.48-4.36,2.82-8.77,4.26-13.35Z" style="fill: rgb(109, 40, 217);"/>
  <path d="M414.29,242.21c1.43,.48,2.7,.9,4.18,1.39-1.42,4.26-2.76,8.3-4.18,12.57-1.39-.35-2.6-.66-4.28-1.09,1.44-4.32,2.84-8.53,4.29-12.87Z" style="fill: rgb(109, 40, 217);"/>
  <path d="M419.64,243.81c1.56,.48,2.76,.85,4.16,1.29-1.39,4.29-2.72,8.42-4.1,12.67-1.36-.34-2.56-.63-4.2-1.04,1.37-4.29,2.7-8.44,4.13-12.93Z" style="fill: rgb(109, 40, 217);"/>
  <path d="M439.66,211.83l-3.67-1.38c1.51-4.81,2.95-9.38,4.39-13.95,3.87,1.06,3.85,1.06,2.67,4.69-1.12,3.44-2.2,6.9-3.39,10.65Z" style="fill: rgb(109, 40, 217);"/>
  <path d="M439.35,196c-1.49,4.87-2.87,9.41-4.3,14.11-1.38-.35-2.48-.64-3.83-.98,1.43-4.67,2.82-9.21,4.3-14.05,1.22,.29,2.29,.55,3.83,.93Z" style="fill: rgb(109, 40, 217);"/>
  <path d="M413.63,258.47c-1.32,3.74-2.63,7.48-3.98,11.31-1.52-.4-2.72-.72-4.24-1.12,1.17-3.6,2.08-7.14,3.56-10.42,.34-.74,2.67-.58,4.08-.84l.57,1.06Z" style="fill: rgb(109, 40, 217);"/>
  <path d="M428.92,246.66c-1.38,4.3-2.7,8.4-4.11,12.76-1.25-.36-2.42-.7-4.02-1.17,1.36-4.26,2.67-8.39,4.06-12.74,1.44,.4,2.7,.76,4.07,1.14Z" style="fill: rgb(109, 40, 217);"/>
  <path d="M419.25,259.94c-1.35,3.9-2.63,7.59-3.99,11.54l-4.23-1.4c1.28-3.92,2.5-7.64,3.77-11.53l4.46,1.38Z" style="fill: rgb(109, 40, 217);"/>
  <path d="M401.98,275.69c-1.7,.35-2.91,.61-4.12,.86,.92,.85,1.84,1.7,3.09,2.84-.31,.82-.79,2.06-1.36,3.55-1.54-.43-2.91-.81-4.43-1.23,1.25-3.97,2.24-7.76,3.65-11.38,1.19-3.04,3.09,.04,5.14-.59-.82,2.49-1.47,4.47-1.96,5.95Z" style="fill: rgb(109, 40, 217);"/>
  <path d="M424.36,261.4c-1.4,4.19-2.67,7.99-3.96,11.86-1.45-.49-2.64-.89-4.03-1.36,1.31-3.96,2.57-7.75,3.87-11.69l4.12,1.2Z" style="fill: rgb(109, 40, 217);"/>
  <path d="M404.12,255.12c1.43,.48,2.6,.89,4.08,1.39-1.37,4.03-2.65,7.8-3.97,11.68-1.43-.4-2.65-.73-4.23-1.17,1.39-4.01,2.72-7.86,4.12-11.9Z" style="fill: rgb(109, 40, 217);"/>
  <path d="M406.93,297.83c-1.57-.43-3.04-.83-4.77-1.3,1.15-3.28,2.22-6.36,3.35-9.59,1.48,.49,2.84,.94,4.49,1.49-.99,3.04-1.95,5.97-3.07,9.4Z" style="fill: rgb(109, 40, 217);"/>
  <path d="M399.73,285.29c1.57,.48,2.78,.85,4.49,1.38-.98,3.08-1.94,6.08-2.96,9.3l-4.69-1.01c1.09-3.32,2.12-6.5,3.16-9.67Z" style="fill: rgb(109, 40, 217);"/>
  <path d="M395.16,294.59l-4.13-1.24c1.11-3.34,2.18-6.54,3.33-9.99,1.49,.55,2.79,1.04,4.26,1.58-1.2,3.33-2.31,6.42-3.47,9.64Z" style="fill: rgb(109, 40, 217);"/>
  <path d="M411.29,288.71q4.27,1.23,2.83,5.15c-.27,.74-.48,1.49-.74,2.23q-1.23,3.6-5.34,2.33c.49-1.63,.95-3.29,1.49-4.91,.52-1.57,1.13-3.11,1.75-4.8Z" style="fill: rgb(109, 40, 217);"/>
  <path d="M400.01,318.67c-1.68-.6-3.04-1.09-4.58-1.64,.95-2.78,1.84-5.42,2.77-8.14,1.65,.58,3.01,1.07,4.83,1.71-.97,2.6-1.94,5.18-3.02,8.06Z" style="fill: rgb(109, 40, 217);"/>
  <path d="M397.64,306.61c-1.59-.51-2.97-.95-4.59-1.47,.94-2.72,1.86-5.35,2.84-8.18l4.67,1.07-2.93,8.59Z" style="fill: rgb(109, 40, 217);"/>
  <path d="M403.3,308.58c-1.69-.65-2.94-1.13-4.42-1.7,.95-2.81,1.84-5.47,2.82-8.37,1.54,.51,2.9,.95,4.57,1.5-1,2.89-1.94,5.57-2.98,8.57Z" style="fill: rgb(109, 40, 217);"/>
  <path d="M393.94,316.88c-1.57-.54-2.85-.98-4.38-1.51,.97-2.75,1.9-5.38,2.9-8.21,1.67,.53,3.12,1,4.65,1.49-1.05,2.71-2.07,5.35-3.18,8.22Z" style="fill: rgb(109, 40, 217);"/>
  <path d="M407.23,300.46c1.54,.38,2.91,.73,4.42,1.1-.98,3-1.88,5.75-2.85,8.7-1.38-.48-2.74-.96-4.3-1.51,.91-2.76,1.78-5.41,2.73-8.29Z" style="fill: rgb(109, 40, 217);"/>
  <path d="M408.61,312.25c-1.03,2.91-1.92,5.4-2.89,8.13-1.44-.47-2.8-.91-4.34-1.42,.92-2.79,1.77-5.38,2.7-8.19,1.54,.5,2.97,.97,4.52,1.47Z" style="fill: rgb(109, 40, 217);"/>
  <path d="M390.31,295.08l4.49,1.51c-1.01,2.75-1.97,5.38-3,8.2-1.35-.4-2.62-.78-4.24-1.26,.93-2.86,1.8-5.52,2.75-8.45Z" style="fill: rgb(109, 40, 217);"/>
  <path d="M386.88,305.51l4.42,1.37c-.55,1.53-1.01,2.9-1.52,4.25-.48,1.26-1.02,2.5-1.58,3.85-1.39-.29-2.6-.55-4.21-.89,.95-2.82,1.86-5.53,2.89-8.58Z" style="fill: rgb(109, 40, 217);"/>
  <path d="M387.96,337.39c-.86,2.17-1.72,4.35-2.68,6.77-1.53-.42-2.99-.83-4.44-1.23,1.42-7.61,2.11-8.14,7.12-5.54Z" style="fill: rgb(109, 40, 217);"/>
  <path d="M390.99,348.01c-.85,2.54-1.57,4.66-2.3,6.85-1.66-.51-3.24-1-5.01-1.55,.81-2.26,1.6-4.46,2.48-6.93,1.67,.57,3.12,1.05,4.83,1.63Z" style="fill: rgb(109, 40, 217);"/>
  <path d="M399.85,320.75c-.79,2.26-1.55,4.45-2.39,6.85-1.59-.42-3.16-.84-4.94-1.31,.86-2.54,1.64-4.81,2.43-7.16,1.76,.58,3.22,1.06,4.89,1.61Z" style="fill: rgb(109, 40, 217);"/>
  <path d="M396.93,329.8c-1,2.56-1.87,4.8-2.76,7.07-1.57-.5-2.95-.95-4.69-1.51,.9-2.48,1.75-4.8,2.6-7.13,1.64,.53,3.02,.97,4.86,1.57Z" style="fill: rgb(109, 40, 217);"/>
  <path d="M389.02,337.43c6.32,1.88,5.26,1.07,2.65,8.38-1.44-.42-2.89-.84-4.76-1.39,.71-2.35,1.4-4.62,2.11-6.98Z" style="fill: rgb(109, 40, 217);"/>
  <path d="M380.77,323c.93-2.66,1.7-4.85,2.55-7.29,1.52,.42,2.96,.82,4.54,1.26-.79,2.38-1.51,4.57-2.33,7.05-1.5-.32-2.97-.64-4.76-1.03Z" style="fill: rgb(109, 40, 217);"/>
  <path d="M386.34,325.14c1.16-3.24,1.97-5.51,2.79-7.8,1.64,.52,3.02,.96,4.68,1.49-.74,2.06-1.07,4.35-2.32,5.88-.67,.82-2.95,.31-5.15,.44Z" style="fill: rgb(109, 40, 217);"/>
  <path d="M383.57,333.18c.92-2.22,1.77-4.3,2.68-6.51,1.6,.38,3.01,.72,4.41,1.06-.98,6.8-2.17,7.77-7.08,5.45Z" style="fill: rgb(109, 40, 217);"/>
  <path d="M395.45,337.22c.93-2.58,1.71-4.78,2.55-7.11,1.51,.42,2.89,.8,4.54,1.26-.83,2.41-1.62,4.7-2.49,7.23-1.42-.43-2.86-.86-4.6-1.37Z" style="fill: rgb(109, 40, 217);"/>
  <path d="M377.75,351.53c.81-2.38,1.53-4.48,2.32-6.78,1.69,.51,3.15,.96,4.92,1.5-.78,2.34-1.52,4.53-2.28,6.8-1.63-.5-3.11-.95-4.96-1.51Z" style="fill: rgb(109, 40, 217);"/>
  <path d="M385.14,325.74c-.99,2.8-1.73,4.89-2.56,7.24-1.57-.38-3.05-.74-4.81-1.17,.7-2.03,1.12-3.94,2-5.61,1.41-2.67,3.18,.12,5.37-.46Z" style="fill: rgb(109, 40, 217);"/>
  <path d="M395.21,339.23c1.49,.43,2.7,.78,4.24,1.23-.62,2.45-1.2,4.77-1.83,7.27-1.59-.46-3.07-.89-4.89-1.42,.8-2.29,1.59-4.54,2.48-7.08Z" style="fill: rgb(109, 40, 217);"/>
  <path d="M376.31,351.24c-1.61-.46-3.07-.88-4.59-1.31,.89-2.4,1.7-4.59,2.57-6.94,1.56,.52,3.01,1.01,4.66,1.56-.88,2.23-1.73,4.4-2.64,6.69Z" style="fill: rgb(109, 40, 217);"/>
  <path d="M392.44,348.3l4.45,1.49c-.84,2.32-1.61,4.48-2.38,6.61-5.19-.53-5.4-1.31-2.06-8.1Z" style="fill: rgb(109, 40, 217);"/>
  <path d="M374.73,341.09c.95-2.58,1.75-4.76,2.63-7.18,1.47,.37,2.84,.71,4.48,1.12-.9,2.59-1.71,4.93-2.62,7.54-1.57-.52-2.92-.96-4.49-1.49Z" style="fill: rgb(109, 40, 217);"/>
  <path d="M383.23,355.38c1.75,.58,3.13,1.04,4.85,1.61-.62,2.03-1.22,4-1.88,6.18-1.68-.46-3.24-.89-5.15-1.42,.72-2.11,1.41-4.12,2.18-6.38Z" style="fill: rgb(109, 40, 217);"/>
  <path d="M402.92,329.44c-1.58-.49-2.78-.87-4.3-1.34,.79-2.45,1.55-4.77,2.34-7.21,1.62,.58,2.88,1.03,4.32,1.54-.81,2.41-1.54,4.6-2.35,7.01Z" style="fill: rgb(109, 40, 217);"/>
  <path d="M381.84,355.09c-.03,.51,.01,.72-.05,.9-.64,1.74-1.3,3.48-1.97,5.24-1.55-.47-3.01-.92-4.87-1.48,.79-2.14,1.52-4.11,2.29-6.16,1.71,.56,3.1,1.01,4.6,1.5Z" style="fill: rgb(109, 40, 217);"/>
  <path d="M378.57,369.38c.67-1.92,1.27-3.65,1.92-5.51,1.77,.51,3.25,.95,4.72,1.37,.24,5.03-1.11,5.93-6.64,4.14Z" style="fill: rgb(109, 40, 217);"/>
  <path d="M383.55,373.22c-.64,1.59-1.24,3.11-1.87,4.62-.11,.25-.37,.43-.65,.75-1.5-.58-3-1.16-4.83-1.86,.57-1.74,1.12-3.43,1.69-5.16,1.98,.58,3.64,1.06,5.67,1.65Z" style="fill: rgb(109, 40, 217);"/>
  <path d="M368.87,357.83c.81-1.95,1.62-3.89,2.48-5.97,1.58,.55,3.02,1.04,4.44,1.53-1.37,6.14-1.65,6.33-6.92,4.43Z" style="fill: rgb(109, 40, 217);"/>
  <path d="M368.44,360.16l4.36,.96c-.46,6.25-1.36,6.95-6.24,4.61,.6-1.77,1.21-3.58,1.88-5.56Z" style="fill: rgb(109, 40, 217);"/>
  <path d="M379.49,363.76c-.74,1.77-1.48,3.56-2.27,5.46-1.5-.51-2.87-.97-4.22-1.43,.25-5.81,1.47-6.59,6.49-4.03Z" style="fill: rgb(109, 40, 217);"/>
  <path d="M387.4,363.44c.81-2.26,1.51-4.23,2.26-6.32,1.59,.64,2.83,1.13,4.27,1.71-.62,2.06-1.2,3.98-1.82,6.05-1.51-.46-2.86-.87-4.71-1.44Z" style="fill: rgb(109, 40, 217);"/>
  <path d="M409.79,271.83c-1.04,2.21-1.9,4.03-2.83,6.01-1.26-.44-2.51-.87-4-1.4,.55-1.88,1.09-3.74,1.71-5.87l5.13,1.26Z" style="fill: rgb(109, 40, 217);"/>
  <path d="M391.54,367.01c-.7,2.16-1.26,3.91-1.93,6-1.47-.55-2.73-1.02-4.48-1.68,.53-1.9,1.06-3.8,1.63-5.87,1.73,.56,3.11,1.01,4.78,1.55Z" style="fill: rgb(109, 40, 217);"/>
  <path d="M410.31,272.3c1.69,.46,2.98,.82,4.68,1.28-.86,2.16-1.64,4.12-2.45,6.15-1.39-.51-2.58-.93-4.14-1.5,.61-1.9,1.2-3.73,1.91-5.93Z" style="fill: rgb(109, 40, 217);"/>
  <path d="M417.75,281.74c-1.35-.62-2.41-1.11-3.7-1.7,.52-2.02,1.03-3.99,1.64-6.32,1.54,.5,2.87,.94,4.46,1.46-.82,2.26-1.55,4.27-2.39,6.57Z" style="fill: rgb(109, 40, 217);"/>
  <path d="M376.73,371.36c-.6,1.71-1.16,3.31-1.82,5.17-1.71-.55-3.25-1.04-5.09-1.62,.66-1.69,1.31-3.35,2.01-5.17,1.65,.55,3.08,1.02,4.89,1.62Z" style="fill: rgb(109, 40, 217);"/>
  <path d="M363.91,373.09c.64-1.66,1.28-3.34,1.97-5.14,1.66,.56,3.1,1.05,4.54,1.53-1.71,5.87-1.76,5.9-6.51,3.61Z" style="fill: rgb(109, 40, 217);"/>
  <path d="M389.01,374.94c-.93,5.59-1.36,5.84-6.13,3.58,.51-1.58,1.04-3.19,1.62-4.98l4.51,1.4Z" style="fill: rgb(109, 40, 217);"/>
  <path d="M382.57,386.66c-.62-.56-1.24-1.13-2.01-1.83,.53-1.27,1.09-2.59,1.74-4.12,1.64,.6,3.15,1.16,4.78,1.76-.48,1.46-.93,2.82-1.39,4.23-1.13-.05-2.17-.1-3.21-.15l.1,.1Z" style="fill: rgb(109, 40, 217);"/>
  <path d="M370.97,383.14c-1.03-.56-2.05-1.11-3.24-1.75,.64-1.44,1.25-2.85,1.92-4.35,1.47,.49,2.83,.94,4.32,1.44-.15,2.19-.1,4.39-3.11,4.62,0,0,.1,.04,.1,.04Z" style="fill: rgb(109, 40, 217);"/>
  <path d="M364.76,381.3l-2.72-1.7c.74-4.18,1.02-4.33,5.83-2.92-.88,1.66,.17,4.62-3.21,4.52,0,0,.1,.1,.1,.1Z" style="fill: rgb(109, 40, 217);"/>
  <path d="M402.65,279.14c1.29,.37,2.29,.67,3.66,1.06-.29,1.38-.57,2.75-.93,4.49-1.64-.47-3.05-.87-4.66-1.34,.7-1.53,1.26-2.74,1.94-4.22Z" style="fill: rgb(109, 40, 217);"/>
  <path d="M405.99,284.86c.66-1.37,1.2-2.5,1.85-3.85,1.42,.45,2.77,.88,4.18,1.33-.47,1.42-.89,2.69-1.36,4.11-1.53-.52-2.9-.99-4.67-1.59Z" style="fill: rgb(109, 40, 217);"/>
  <path d="M411.51,286.71c.72-1.44,1.35-2.7,2.02-4.04l3.54,.96c-.35,1.39-.68,2.74-1.06,4.29-1.57-.42-2.92-.79-4.5-1.21Z" style="fill: rgb(109, 40, 217);"/>
  <path d="M463.33,75.4c-.91-1.07-1.47-1.75-2.04-2.42,.78-.61,1.48-1.47,2.36-1.72,.36-.1,1.54,1.15,1.53,1.76-.02,.68-.98,1.33-1.85,2.37Z" style="fill: rgb(109, 40, 217);"/>
  <path d="M458.24,90.77l-2.38-2.08c.69-.59,1.35-1.58,2.09-1.64,.6-.05,1.55,.92,1.83,1.63,.14,.37-.84,1.17-1.55,2.09Z" style="fill: rgb(109, 40, 217);"/>
  <path d="M476.11,90.94c.26-1.88,.7-3.29,2.75-2.44,.51,.21,1.18,1.24,1.04,1.62-.71,1.9-2.12,1.56-3.79,.82Z" style="fill: rgb(109, 40, 217);"/>
  <path d="M478.75,105.37c-1.5,.84-2.25,1.58-3.02,1.59-.61,0-1.24-.87-1.86-1.36,.67-.56,1.28-1.41,2.04-1.57,.6-.13,1.37,.6,2.83,1.33Z" style="fill: rgb(109, 40, 217);"/>
  <path d="M480.17,75.93c1-.94,1.57-1.74,2.34-2.06,.29-.12,1.05,.88,1.59,1.37-.65,.62-1.24,1.37-2,1.79-.27,.14-.98-.53-1.93-1.1Z" style="fill: rgb(109, 40, 217);"/>
  <path d="M486.68,64.21c-.82-.99-1.24-1.48-1.65-1.98,.84-.64,1.63-1.43,2.57-1.83,.28-.12,1.02,.8,1.55,1.24l-2.47,2.57Z" style="fill: rgb(109, 40, 217);"/>
  <path d="M465.94,59.28c1.34-.14,2.68-.32,4.02-.34,.11,0,.52,1.43,.29,1.63-1.37,1.19-2.84,1.57-4.18,.02-.04-.44-.09-.88-.13-1.31Z" style="fill: rgb(109, 40, 217);"/>
  <path d="M309.32,495.11c.36-2.25,1.2-4.41,.81-6.31-.22-1.06-2.49-1.69-3.8-2.49,1.66-1.19,3.97-1.08,5.57,.63,1.1,1.18,1.91,3.37,1.65,4.92-.38,2.29-2.39,3.47-4.22,3.26Z" style="fill: rgb(109, 40, 217);"/>
  <path d="M361.24,512.36c1.14-1.6,2.83-3.02,3.12-4.68,.22-1.31-1.29-2.92-1.93-4.19,1.75,.04,4.02,.87,4.76,3.42,.34,1.16-.23,2.96-1.01,4.01-1.36,1.82-3.41,2.18-4.94,1.44Z" style="fill: rgb(109, 40, 217);"/>
</svg>